<svg xmlns="http://www.w3.org/2000/svg" viewBox="0 0 1040 600" role="img" aria-label="Clean Power BI monitor dashboard for CoE governance">
  <defs>
    <linearGradient id="card" x1="0" x2="0" y1="0" y2="1">
      <stop offset="0" stop-color="#ffffff"/>
      <stop offset="1" stop-color="#f4f7fb"/>
    </linearGradient>
    <filter id="soft" x="-10%" y="-10%" width="120%" height="120%">
      <feDropShadow dx="0" dy="10" stdDeviation="12" flood-color="#0f172a" flood-opacity=".16"/>
    </filter>
  </defs>
  <rect width="1040" height="600" rx="26" fill="#f8fafc"/>
  <rect x="0" y="0" width="1040" height="58" rx="26" fill="#0f172a"/>
  <text x="34" y="38" fill="#f8fafc" font-family="Inter, Arial, sans-serif" font-size="24" font-weight="800">CoE Power BI Monitor</text>
  <text x="820" y="36" fill="#aeb8c8" font-family="Inter, Arial, sans-serif" font-size="14">Environments • Apps • Flows • Agents</text>
  <g filter="url(#soft)">
    <rect x="34" y="88" width="180" height="78" rx="8" fill="url(#card)"/>
    <rect x="238" y="88" width="180" height="78" rx="8" fill="url(#card)"/>
    <rect x="442" y="88" width="180" height="78" rx="8" fill="url(#card)"/>
    <rect x="646" y="88" width="180" height="78" rx="8" fill="url(#card)"/>
  </g>
  <g font-family="Inter, Arial, sans-serif">
    <text x="54" y="124" fill="#0f172a" font-size="27" font-weight="800">124</text>
    <text x="54" y="146" fill="#64748b" font-size="13">Environments</text>
    <text x="258" y="124" fill="#0f172a" font-size="27" font-weight="800">2,418</text>
    <text x="258" y="146" fill="#64748b" font-size="13">Apps and flows</text>
    <text x="462" y="124" fill="#0f172a" font-size="27" font-weight="800">31</text>
    <text x="462" y="146" fill="#64748b" font-size="13">Orphaned assets</text>
    <text x="666" y="124" fill="#0f172a" font-size="27" font-weight="800">18</text>
    <text x="666" y="146" fill="#64748b" font-size="13">Connector risks</text>
  </g>
  <g filter="url(#soft)">
    <rect x="34" y="196" width="340" height="170" rx="10" fill="url(#card)"/>
    <rect x="402" y="196" width="430" height="170" rx="10" fill="url(#card)"/>
    <rect x="34" y="396" width="340" height="170" rx="10" fill="url(#card)"/>
    <rect x="402" y="396" width="430" height="170" rx="10" fill="url(#card)"/>
  </g>
  <rect x="34" y="196" width="340" height="34" rx="10" fill="#35d0c4"/>
  <rect x="402" y="196" width="430" height="34" rx="10" fill="#35d0c4"/>
  <rect x="34" y="396" width="340" height="34" rx="10" fill="#35d0c4"/>
  <rect x="402" y="396" width="430" height="34" rx="10" fill="#35d0c4"/>
  <g fill="#ffffff" font-family="Inter, Arial, sans-serif" font-size="15" font-weight="800">
    <text x="54" y="218">App Creation Trend</text>
    <text x="422" y="218">Apps and Flows per Environment</text>
    <text x="54" y="418">Environments by Type</text>
    <text x="422" y="418">Top Risk Signals</text>
  </g>
  <g stroke="#d6dde8" stroke-width="1">
    <path d="M62 334h280M62 294h280M62 254h280"/>
    <path d="M446 334h340M446 294h340M446 254h340"/>
    <path d="M62 534h280M62 494h280M62 454h280"/>
    <path d="M446 534h340M446 494h340M446 454h340"/>
  </g>
  <path d="M74 262c38 8 52 10 82 2s55-10 90 16 57 34 96 38" fill="none" stroke="#35d0c4" stroke-linecap="round" stroke-width="5"/>
  <g fill="#0a83d8">
    <rect x="172" y="470" width="74" height="66" rx="4"/>
    <rect x="78" y="494" width="74" height="42" rx="4"/>
    <rect x="266" y="510" width="46" height="26" rx="4"/>
  </g>
  <g fill="#36c6bd">
    <rect x="484" y="257" width="230" height="17" rx="3"/>
    <rect x="484" y="289" width="278" height="17" rx="3"/>
    <rect x="484" y="321" width="192" height="17" rx="3"/>
  </g>
  <g fill="#bf3ec8">
    <rect x="714" y="257" width="62" height="17" rx="3"/>
    <rect x="762" y="289" width="32" height="17" rx="3"/>
    <rect x="676" y="321" width="78" height="17" rx="3"/>
  </g>
  <g font-family="Inter, Arial, sans-serif" font-size="13" fill="#334155">
    <text x="446" y="270">Production</text>
    <text x="446" y="302">Default</text>
    <text x="446" y="334">Sandbox</text>
    <text x="474" y="468">Licensing exposure</text>
    <text x="474" y="502">Orphaned apps and flows</text>
    <text x="474" y="536">Shared with 20+ users</text>
  </g>
  <g>
    <rect x="446" y="456" width="18" height="18" rx="4" fill="#fbbf24"/>
    <rect x="446" y="490" width="18" height="18" rx="4" fill="#f97316"/>
    <rect x="446" y="524" width="18" height="18" rx="4" fill="#ef4444"/>
    <rect x="640" y="456" width="135" height="18" rx="9" fill="#fbbf24"/>
    <rect x="640" y="490" width="100" height="18" rx="9" fill="#f97316"/>
    <rect x="640" y="524" width="165" height="18" rx="9" fill="#ef4444"/>
  </g>
  <rect x="870" y="88" width="136" height="478" rx="10" fill="#ffffff" stroke="#d6dde8"/>
  <text x="892" y="126" fill="#0f172a" font-family="Inter, Arial, sans-serif" font-size="18" font-weight="800">Filters</text>
  <g fill="#f8fafc" stroke="#d6dde8">
    <rect x="892" y="154" width="92" height="32" rx="5"/>
    <rect x="892" y="204" width="92" height="32" rx="5"/>
    <rect x="892" y="254" width="92" height="32" rx="5"/>
    <rect x="892" y="304" width="92" height="32" rx="5"/>
  </g>
  <g fill="#64748b" font-family="Inter, Arial, sans-serif" font-size="12">
    <text x="904" y="174">Created On</text>
    <text x="904" y="224">Environment</text>
    <text x="904" y="274">Connector</text>
    <text x="904" y="324">Owner</text>
  </g>
</svg>
