<svg xmlns="http://www.w3.org/2000/svg" viewBox="0 0 1040 600" role="img" aria-label="Power BI CoE monitor environments report">
  <defs>
    <filter id="shadow" x="-10%" y="-10%" width="120%" height="130%">
      <feDropShadow dx="0" dy="8" stdDeviation="7" flood-color="#0f172a" flood-opacity=".18"/>
    </filter>
    <style>
      .label{font:600 13px Arial, sans-serif;fill:#263241}
      .small{font:500 10px Arial, sans-serif;fill:#5e6b7b}
      .title{font:700 14px Arial, sans-serif;fill:#fff}
      .num{font:700 24px Arial, sans-serif;fill:#111827}
      .axis{font:500 10px Arial, sans-serif;fill:#475569}
    </style>
  </defs>
  <rect width="1040" height="600" fill="#f8fafc"/>
  <rect x="0" y="0" width="864" height="600" fill="#ffffff"/>
  <rect x="864" y="0" width="176" height="600" fill="#ffffff" stroke="#d7dce4"/>
  <rect x="0" y="0" width="864" height="30" fill="#f2f2f2"/>
  <text x="20" y="21" font-family="Arial, sans-serif" font-size="15" font-weight="700" fill="#19b9aa">Environments</text>

  <g filter="url(#shadow)">
    <rect x="35" y="48" width="170" height="48" fill="#fff"/>
    <rect x="355" y="48" width="94" height="48" fill="#fff"/>
    <rect x="480" y="48" width="94" height="48" fill="#fff"/>
    <rect x="605" y="48" width="94" height="48" fill="#fff"/>
    <rect x="730" y="48" width="94" height="48" fill="#fff"/>
  </g>
  <g>
    <line x1="35" y1="48" x2="205" y2="48" stroke="#35c6b4" stroke-width="3"/>
    <line x1="355" y1="48" x2="449" y2="48" stroke="#35c6b4" stroke-width="3"/>
    <line x1="480" y1="48" x2="574" y2="48" stroke="#35c6b4" stroke-width="3"/>
    <line x1="605" y1="48" x2="699" y2="48" stroke="#35c6b4" stroke-width="3"/>
    <line x1="730" y1="48" x2="824" y2="48" stroke="#35c6b4" stroke-width="3"/>
    <text x="44" y="70" class="num">124</text>
    <text x="44" y="84" class="small"># Environments</text>
    <text x="118" y="65" font-family="Arial, sans-serif" font-size="11" fill="#13a99a">13</text>
    <text x="118" y="82" class="small">Created in the last month</text>
    <text x="372" y="70" class="num">2</text>
    <text x="372" y="84" class="small"># Teams environments</text>
    <text x="497" y="70" class="num">34</text>
    <text x="497" y="84" class="small"># Developer environments</text>
    <text x="620" y="70" class="num">(Blank)</text>
    <text x="620" y="84" class="small"># Trial environments</text>
    <text x="745" y="70" class="num">121</text>
    <text x="745" y="84" class="small"># Dataverse instances</text>
  </g>

  <g filter="url(#shadow)">
    <rect x="32" y="124" width="300" height="156" fill="#fff"/>
    <rect x="352" y="124" width="472" height="156" fill="#fff"/>
    <rect x="32" y="300" width="300" height="156" fill="#fff"/>
    <rect x="352" y="300" width="226" height="156" fill="#fff"/>
    <rect x="598" y="300" width="226" height="156" fill="#fff"/>
  </g>
  <rect x="32" y="124" width="300" height="18" fill="#48c3b2"/>
  <rect x="352" y="124" width="472" height="18" fill="#48c3b2"/>
  <rect x="32" y="300" width="300" height="18" fill="#48c3b2"/>
  <rect x="352" y="300" width="226" height="18" fill="#48c3b2"/>
  <rect x="598" y="300" width="226" height="18" fill="#48c3b2"/>
  <text x="38" y="138" class="title">App Creation Trend</text>
  <text x="358" y="138" class="title">Apps and Flows per Environment</text>
  <text x="38" y="314" class="title"># Environments by Environment Type</text>
  <text x="358" y="314" class="title">Environments by Creator</text>
  <text x="604" y="314" class="title">% of Enabled Environments</text>

  <g stroke="#e6eaf0" stroke-width="1">
    <line x1="68" y1="247" x2="305" y2="247"/>
    <line x1="68" y1="211" x2="305" y2="211"/>
    <line x1="68" y1="175" x2="305" y2="175"/>
    <line x1="386" y1="252" x2="790" y2="252"/>
    <line x1="386" y1="222" x2="790" y2="222"/>
    <line x1="386" y1="192" x2="790" y2="192"/>
    <line x1="68" y1="425" x2="305" y2="425"/>
    <line x1="68" y1="389" x2="305" y2="389"/>
    <line x1="68" y1="353" x2="305" y2="353"/>
  </g>
  <path d="M75 164c26 3 44 12 68 16 24 3 40-5 62 3 22 7 24 25 42 35 19 11 39 8 58 22" fill="none" stroke="#23bfb1" stroke-width="3"/>
  <g fill="#0f172a" class="axis">
    <text x="68" y="269">May</text><text x="105" y="269">Jun</text><text x="142" y="269">Jan</text><text x="178" y="269">Nov</text><text x="214" y="269">Mar</text><text x="250" y="269">Apr</text><text x="288" y="269">Aug</text>
    <text x="70" y="440">Sandbox</text><text x="142" y="440">Production</text><text x="218" y="440">Developer</text><text x="285" y="440">Teams</text>
  </g>

  <g>
    <text x="388" y="169" class="axis">coe-core-components-dev</text>
    <text x="388" y="196" class="axis">Hannes Meini's Environment</text>
    <text x="388" y="223" class="axis">pctools-prod</text>
    <text x="388" y="250" class="axis">CoE (Prod Install)</text>
    <rect x="496" y="158" width="162" height="14" fill="#0078d4"/><rect x="658" y="158" width="113" height="14" fill="#c13ccd"/>
    <rect x="496" y="185" width="119" height="14" fill="#0078d4"/><rect x="615" y="185" width="120" height="14" fill="#c13ccd"/>
    <rect x="496" y="212" width="106" height="14" fill="#0078d4"/><rect x="602" y="212" width="142" height="14" fill="#c13ccd"/>
    <rect x="496" y="239" width="98" height="14" fill="#0078d4"/><rect x="594" y="239" width="91" height="14" fill="#c13ccd"/>
    <text x="560" y="169" font-family="Arial,sans-serif" font-size="9" fill="#fff">126</text>
    <text x="706" y="169" font-family="Arial,sans-serif" font-size="9" fill="#fff">90</text>
  </g>
  <g fill="#48c3b2">
    <rect x="86" y="348" width="46" height="78"/>
    <rect x="166" y="376" width="46" height="50"/>
    <rect x="246" y="378" width="46" height="48"/>
    <rect x="300" y="419" width="14" height="7"/>
    <rect x="472" y="335" width="76" height="13"/>
    <rect x="472" y="359" width="62" height="13"/>
    <rect x="472" y="383" width="46" height="13"/>
    <rect x="472" y="407" width="28" height="13"/>
  </g>
  <g class="axis">
    <text x="388" y="346">SYSTEM</text>
    <text x="388" y="370">4e337820-b...</text>
    <text x="388" y="394">6b08e10d-g...</text>
    <text x="388" y="418">b3e63217-f...</text>
  </g>
  <circle cx="710" cy="383" r="54" fill="#4bc3b5"/>
  <text x="678" y="448" class="small">124 (100%)</text>
  <text x="628" y="342" class="small">Is Managed</text>
  <circle cx="684" cy="339" r="4" fill="#4bc3b5"/>
  <text x="692" y="342" class="small">Enabled</text>

  <g>
    <text x="890" y="24" font-family="Arial,sans-serif" font-size="18" font-weight="700" fill="#111827">Filters</text>
    <rect x="888" y="36" width="118" height="26" fill="#fff" stroke="#cfd6df"/>
    <text x="912" y="54" class="small">Search</text>
    <path d="M900 46a5 5 0 1 0 0 10 5 5 0 0 0 0-10m4 9 5 5" fill="none" stroke="#64748b" stroke-width="1.5"/>
    <text x="888" y="84" class="small">Filters on this page</text>
  </g>
  <g>
    <rect x="888" y="100" width="120" height="34" fill="#fff" stroke="#d7dce4"/>
    <rect x="888" y="140" width="120" height="34" fill="#fff" stroke="#d7dce4"/>
    <rect x="888" y="180" width="120" height="34" fill="#fff" stroke="#d7dce4"/>
    <rect x="888" y="220" width="120" height="34" fill="#fff" stroke="#d7dce4"/>
    <rect x="888" y="260" width="120" height="34" fill="#fff" stroke="#d7dce4"/>
    <rect x="888" y="330" width="120" height="34" fill="#fff" stroke="#d7dce4"/>
    <rect x="888" y="370" width="120" height="34" fill="#fff" stroke="#d7dce4"/>
    <rect x="888" y="410" width="120" height="34" fill="#fff" stroke="#d7dce4"/>
  </g>
  <g class="small">
    <text x="896" y="116">Created On</text><text x="896" y="128">is (All)</text>
    <text x="896" y="156">Environment Name</text><text x="896" y="168">is (All)</text>
    <text x="896" y="196">Environment Type</text><text x="896" y="208">is (All)</text>
    <text x="896" y="236">Environment Region</text><text x="896" y="248">is (All)</text>
    <text x="896" y="276">Has CDS</text><text x="896" y="288">is (All)</text>
    <text x="888" y="314">Filters on all pages</text>
    <text x="896" y="346">Environment Name</text><text x="896" y="358">is (All)</text>
    <text x="896" y="386">Environment Type</text><text x="896" y="398">is (All)</text>
    <text x="896" y="426">Is Orphaned</text><text x="896" y="438">is (All)</text>
  </g>

  <rect x="0" y="560" width="864" height="40" fill="#f2f2f2" stroke="#d7dce4"/>
  <g font-family="Arial,sans-serif" font-size="11" fill="#111827">
    <text x="52" y="584">Introduction</text>
    <text x="150" y="584">Overview - Power Apps</text>
    <text x="312" y="584">Overview - Power Automate</text>
    <text x="492" y="584">Overview - Power Virtual Agents</text>
    <rect x="586" y="560" width="88" height="40" fill="#fff" stroke="#d7dce4"/>
    <line x1="586" y1="560" x2="674" y2="560" stroke="#13a99a" stroke-width="3"/>
    <text x="612" y="584">Environments</text>
    <text x="704" y="584">Makers</text>
  </g>
</svg>
