<svg xmlns="http://www.w3.org/2000/svg" viewBox="0 0 960 520" role="img" aria-label="Business value toolkit and maker nurture model">
  <defs>
    <linearGradient id="bg" x1="0" x2="1" y1="0" y2="1">
      <stop offset="0" stop-color="#0b1020"/>
      <stop offset="1" stop-color="#05070b"/>
    </linearGradient>
    <linearGradient id="accent" x1="0" x2="1">
      <stop offset="0" stop-color="#35d0c4"/>
      <stop offset="1" stop-color="#c084fc"/>
    </linearGradient>
    <filter id="shadow" x="-10%" y="-10%" width="120%" height="120%">
      <feDropShadow dx="0" dy="16" stdDeviation="18" flood-color="#000" flood-opacity=".35"/>
    </filter>
  </defs>
  <rect width="960" height="520" rx="28" fill="url(#bg)"/>
  <text x="56" y="72" fill="#f8fafc" font-family="Inter, Arial, sans-serif" font-size="32" font-weight="800">Value Capture and Maker Nurture</text>
  <text x="56" y="110" fill="#aeb8c8" font-family="Inter, Arial, sans-serif" font-size="17">A practical operating model for stories, support, licensing requests, and citizen-developer enablement.</text>
  <g filter="url(#shadow)">
    <rect x="56" y="154" width="252" height="270" rx="18" fill="#0d1422" stroke="#263044"/>
    <rect x="354" y="154" width="252" height="270" rx="18" fill="#0d1422" stroke="#263044"/>
    <rect x="652" y="154" width="252" height="270" rx="18" fill="#0d1422" stroke="#263044"/>
  </g>
  <g font-family="Inter, Arial, sans-serif">
    <text x="86" y="204" fill="#35d0c4" font-size="18" font-weight="800">Business Value Toolkit</text>
    <text x="384" y="204" fill="#76a8ff" font-size="18" font-weight="800">SharePoint Knowledge Hub</text>
    <text x="682" y="204" fill="#c084fc" font-size="18" font-weight="800">Biweekly Office Hours</text>
  </g>
  <g fill="#aeb8c8" font-family="Inter, Arial, sans-serif" font-size="15">
    <text x="86" y="250">Problem</text>
    <text x="86" y="286">Solution</text>
    <text x="86" y="322">Value</text>
    <text x="86" y="358">Next steps</text>
    <text x="384" y="250">Beginner FAQs</text>
    <text x="384" y="286">How-to guides</text>
    <text x="384" y="322">Premium license request</text>
    <text x="384" y="358">Governance standards</text>
    <text x="682" y="250">Citizen developer support</text>
    <text x="682" y="286">Architecture questions</text>
    <text x="682" y="322">Reusable patterns</text>
    <text x="682" y="358">Risk-aware build guidance</text>
  </g>
  <g fill="none" stroke="url(#accent)" stroke-linecap="round" stroke-width="4">
    <path d="M308 288h40"/>
    <path d="M606 288h40"/>
    <path d="M178 444c118 44 486 44 604 0"/>
  </g>
  <g fill="#f8fafc" font-family="Inter, Arial, sans-serif" font-size="28" font-weight="800" text-anchor="middle">
    <text x="182" y="462">Capture</text>
    <text x="480" y="482">Communicate</text>
    <text x="778" y="462">Scale</text>
  </g>
  <g>
    <circle cx="248" cy="245" r="12" fill="#35d0c4"/>
    <circle cx="248" cy="281" r="12" fill="#35d0c4"/>
    <circle cx="248" cy="317" r="12" fill="#35d0c4"/>
    <circle cx="248" cy="353" r="12" fill="#35d0c4"/>
    <path fill="none" stroke="#07111e" stroke-width="3" d="m242 245 4 4 8-10m-12 42 4 4 8-10m-12 42 4 4 8-10m-12 42 4 4 8-10"/>
    <rect x="534" y="236" width="34" height="34" rx="8" fill="#76a8ff" opacity=".85"/>
    <rect x="534" y="280" width="34" height="34" rx="8" fill="#76a8ff" opacity=".65"/>
    <rect x="534" y="324" width="34" height="34" rx="8" fill="#76a8ff" opacity=".45"/>
    <circle cx="820" cy="250" r="21" fill="#c084fc" opacity=".9"/>
    <circle cx="760" cy="304" r="21" fill="#c084fc" opacity=".65"/>
    <circle cx="840" cy="350" r="21" fill="#c084fc" opacity=".5"/>
  </g>
</svg>
