<svg xmlns="http://www.w3.org/2000/svg" viewBox="0 0 960 520" role="img" aria-label="Center of Excellence core components workflow">
  <defs>
    <linearGradient id="bg" x1="0" x2="1" y1="0" y2="1">
      <stop offset="0" stop-color="#111827"/>
      <stop offset="1" stop-color="#05070b"/>
    </linearGradient>
    <linearGradient id="teal" x1="0" x2="1">
      <stop offset="0" stop-color="#35d0c4"/>
      <stop offset="1" stop-color="#76a8ff"/>
    </linearGradient>
    <filter id="shadow" x="-10%" y="-10%" width="120%" height="120%">
      <feDropShadow dx="0" dy="14" stdDeviation="18" flood-color="#000" flood-opacity=".38"/>
    </filter>
  </defs>
  <rect width="960" height="520" rx="28" fill="url(#bg)"/>
  <g opacity=".16" stroke="#fff">
    <path d="M80 94h800M80 174h800M80 254h800M80 334h800M80 414h800"/>
    <path d="M160 70v380M320 70v380M480 70v380M640 70v380M800 70v380"/>
  </g>
  <text x="56" y="70" fill="#f8fafc" font-family="Inter, Arial, sans-serif" font-size="32" font-weight="800">CoE Core Components</text>
  <text x="56" y="108" fill="#aeb8c8" font-family="Inter, Arial, sans-serif" font-size="17">Inventory, ownership, usage, and governance signals synced into a managed operating model.</text>
  <g filter="url(#shadow)">
    <rect x="56" y="160" width="178" height="210" rx="18" fill="#0c111a" stroke="#253044"/>
    <rect x="286" y="160" width="178" height="210" rx="18" fill="#0c111a" stroke="#253044"/>
    <rect x="516" y="160" width="178" height="210" rx="18" fill="#0c111a" stroke="#253044"/>
    <rect x="746" y="160" width="158" height="210" rx="18" fill="#0c111a" stroke="#253044"/>
  </g>
  <g fill="none" stroke="url(#teal)" stroke-width="4" stroke-linecap="round">
    <path d="M234 265h46"/>
    <path d="M464 265h46"/>
    <path d="M694 265h46"/>
  </g>
  <g fill="#f8fafc" font-family="Inter, Arial, sans-serif" text-anchor="middle">
    <text x="145" y="206" font-size="19" font-weight="800">Tenant Sync</text>
    <text x="375" y="206" font-size="19" font-weight="800">Inventory</text>
    <text x="605" y="206" font-size="19" font-weight="800">Risk Review</text>
    <text x="825" y="206" font-size="19" font-weight="800">Action</text>
  </g>
  <g fill="#aeb8c8" font-family="Inter, Arial, sans-serif" font-size="15">
    <text x="86" y="250">Apps</text>
    <text x="86" y="282">Flows</text>
    <text x="86" y="314">Agents</text>
    <text x="316" y="250">Owners</text>
    <text x="316" y="282">Shares</text>
    <text x="316" y="314">Connectors</text>
    <text x="546" y="250">20+ users</text>
    <text x="546" y="282">Orphaned assets</text>
    <text x="546" y="314">HTTP risk</text>
    <text x="776" y="250">DLP</text>
    <text x="776" y="282">Owner follow-up</text>
    <text x="776" y="314">Support model</text>
  </g>
  <g>
    <circle cx="145" cy="410" r="38" fill="#35d0c4" opacity=".14"/>
    <path fill="none" stroke="#35d0c4" stroke-linecap="round" stroke-linejoin="round" stroke-width="5" d="M130 406h30m-24-14h18m-18 28h18"/>
    <circle cx="375" cy="410" r="38" fill="#76a8ff" opacity=".14"/>
    <path fill="none" stroke="#76a8ff" stroke-linecap="round" stroke-linejoin="round" stroke-width="5" d="M357 394h36v32h-36zm9 10h18m-18 11h12"/>
    <circle cx="605" cy="410" r="38" fill="#fbbf24" opacity=".14"/>
    <path fill="none" stroke="#fbbf24" stroke-linecap="round" stroke-linejoin="round" stroke-width="5" d="M605 389v27m0 13h.1m-27-4 27-48 27 48z"/>
    <circle cx="825" cy="410" r="38" fill="#c084fc" opacity=".14"/>
    <path fill="none" stroke="#c084fc" stroke-linecap="round" stroke-linejoin="round" stroke-width="5" d="M807 410 820 423l25-30"/>
  </g>
</svg>
