<svg xmlns="http://www.w3.org/2000/svg" viewBox="0 0 256 256" role="img" aria-labelledby="title">
  <title id="title">Dynamics 365 logo</title>
  <defs>
    <linearGradient id="dynA" x1="34" y1="33" x2="208" y2="110" gradientUnits="userSpaceOnUse">
      <stop stop-color="#0078d4"/>
      <stop offset=".55" stop-color="#3158d4"/>
      <stop offset="1" stop-color="#7a5bd6"/>
    </linearGradient>
    <linearGradient id="dynB" x1="76" y1="120" x2="205" y2="222" gradientUnits="userSpaceOnUse">
      <stop stop-color="#7d73f6"/>
      <stop offset=".45" stop-color="#4d8bf7"/>
      <stop offset="1" stop-color="#0078d4"/>
    </linearGradient>
    <linearGradient id="dynC" x1="126" y1="86" x2="166" y2="187" gradientUnits="userSpaceOnUse">
      <stop stop-color="#f4f0ff" stop-opacity=".94"/>
      <stop offset="1" stop-color="#8e8df4" stop-opacity=".8"/>
    </linearGradient>
  </defs>
  <path fill="url(#dynA)" d="M38 29c0-14 14-23 27-18l137 53c19 7 22 32 5 43l-53 34c-13 8-30-1-30-16v-31c0-8-5-15-12-18L50 54c-8-3-12-11-12-25Z"/>
  <path fill="url(#dynB)" d="M218 102c16 7 18 29 4 39L72 245c-13 9-31 0-31-17V85c0-13 13-22 25-18l73 26c8 3 13 10 13 19v55c0 8 9 13 16 9l54-35c17-11 15-36-4-43Z"/>
  <path fill="url(#dynC)" d="M123 91c16 6 29 22 29 39v63c0 10-13 15-20 8l-22-23c-4-4-6-9-6-15v-75l19 7Z" opacity=".92"/>
</svg>
