<svg xmlns="http://www.w3.org/2000/svg" viewBox="0 0 256 256" role="img" aria-labelledby="title">
  <title id="title">SQL database logo</title>
  <defs>
    <linearGradient id="side" x1="40" y1="80" x2="216" y2="210" gradientUnits="userSpaceOnUse">
      <stop stop-color="#2f8be8"/>
      <stop offset=".42" stop-color="#1f64c4"/>
      <stop offset="1" stop-color="#133f87"/>
    </linearGradient>
    <linearGradient id="top" x1="47" y1="37" x2="210" y2="72" gradientUnits="userSpaceOnUse">
      <stop stop-color="#46b6f5"/>
      <stop offset="1" stop-color="#2f8fe8"/>
    </linearGradient>
    <linearGradient id="band" x1="40" y1="88" x2="216" y2="134" gradientUnits="userSpaceOnUse">
      <stop stop-color="#2b80dc"/>
      <stop offset="1" stop-color="#256bc8"/>
    </linearGradient>
  </defs>
  <path fill="url(#side)" d="M39 56h178v151c0 22-40 39-89 39s-89-17-89-39V56Z"/>
  <ellipse cx="128" cy="56" rx="89" ry="33" fill="url(#top)"/>
  <path fill="url(#band)" d="M39 92c0 22 40 39 89 39s89-17 89-39v45c0 22-40 39-89 39s-89-17-89-39V92Z" opacity=".92"/>
  <path fill="#123d82" d="M39 158c0 22 40 39 89 39s89-17 89-39v49c0 22-40 39-89 39s-89-17-89-39v-49Z" opacity=".48"/>
  <text x="128" y="154" fill="#ffffff" font-family="Arial, Helvetica, sans-serif" font-size="55" font-weight="800" text-anchor="middle">SQL</text>
</svg>
